<svg width="306" height="60" xmlns="http://www.w3.org/2000/svg">
 <defs>
  <style>.cls-1{fill:#db6a9b;}.cls-2{fill:#eca617;}.cls-3{fill:#106fb4;}.cls-4{fill:#40aa6d;}.cls-5{fill:#231815;}.cls-6{fill:#040000;stroke:#040000;stroke-miterlimit:10;stroke-width:0.23px;}</style>
 </defs>
 <title>samurai-logo.ol</title>
 <g>
  <title>background</title>
  <rect fill="none" id="canvas_background" height="62" width="308" y="-1" x="-1"/>
 </g>
 <g>
  <title>Layer 1</title>
  <path id="svg_37" d="m36,8.61l-6.08,4.87a24.31,24.31 0 0 0 -4.37,-3.73a10.7,10.7 0 0 0 -5.66,-1.23a10.9,10.9 0 0 0 -6.56,1.83a5.58,5.58 0 0 0 -2.52,4.71a5.71,5.71 0 0 0 2.2,4.41a30.07,30.07 0 0 0 7.49,4.19a53.49,53.49 0 0 1 8.21,4.22a21,21 0 0 1 4.88,4.36a17.09,17.09 0 0 1 2.82,5a16.59,16.59 0 0 1 0.93,5.56a15.66,15.66 0 0 1 -5,11.67a16.68,16.68 0 0 1 -12,4.82a20.42,20.42 0 0 1 -12.18,-3.77q-5.28,-3.77 -8.13,-11.32l7.5,-2.11q4.09,9.27 12.54,9.27a9.79,9.79 0 0 0 6.81,-2.45a8,8 0 0 0 2.72,-6.19a8.37,8.37 0 0 0 -1.44,-4.48a12.7,12.7 0 0 0 -3.54,-3.72a37.8,37.8 0 0 0 -6.73,-3.35a47.62,47.62 0 0 1 -7.1,-3.46a18.3,18.3 0 0 1 -4.3,-3.75a15.84,15.84 0 0 1 -2.66,-4.33a12.53,12.53 0 0 1 -0.84,-4.61a12.91,12.91 0 0 1 4.72,-10.1a16.85,16.85 0 0 1 11.51,-4.16a23.34,23.34 0 0 1 9.1,1.94a18.69,18.69 0 0 1 7.68,5.91z" class="cls-5"/>
  <path id="svg_38" d="m63.6,0.38l25.93,57l-7.82,0l-6.37,-14.05l-23.35,0l-6.28,14.08l-7.8,0l25.69,-57.03zm0,17.14l-8.78,19.59l17.67,0l-8.89,-19.59z" class="cls-5"/>
  <path id="svg_39" d="m140.96,0.24l15,57.2l-7.35,0l-9.09,-34.95l-15.65,37.06l-15.7,-37.37l-9.22,35.26l-7.24,0l15,-57.2l17.19,40.93l17.06,-40.93z" class="cls-5"/>
  <path id="svg_40" d="m158.16,2.57l7.55,0l0,33.76q0,7.5 3.6,11.6t10.19,4.1q6.55,0 10.19,-3.77t3.64,-10.63l0,-35l7.5,0l0,34.47q0,10.09 -5.75,16.12t-15.37,6.02q-9.79,0 -15.67,-6.12t-5.88,-18.06l0,-32.49z" class="cls-5"/>
  <path id="svg_41" d="m209.43,2.49l11.9,0q8.88,0 14.46,4.42a13.8,13.8 0 0 1 5.58,11.33a14.55,14.55 0 0 1 -3.66,9.72q-3.61,4.22 -11.26,5.95l16,23.5l-8.6,0l-15.24,-22.59l-1.68,0l0,22.59l-7.5,0l0,-54.92zm7.5,6.64l0,19.11q16.59,0.35 16.6,-9.61a8.36,8.36 0 0 0 -1.94,-5.71a9.77,9.77 0 0 0 -5.17,-3a42.37,42.37 0 0 0 -9.49,-0.79z" class="cls-5"/>
  <path id="svg_42" d="m270.34,0.38l25.93,57l-7.86,0l-6.37,-14.05l-23.33,0l-6.3,14.05l-7.8,0l25.73,-57zm0,17.14l-8.78,19.59l17.65,0l-8.87,-19.59z" class="cls-5"/>
  <path id="svg_43" d="m299,2.49l7.41,0l0,54.92l-7.41,0l0,-54.92z" class="cls-5"/>
 </g>
</svg>